<mxfile host="app.diagrams.net" agent="Mozilla/5.0 (Macintosh; Intel Mac OS X 10_15_7) AppleWebKit/537.36 (KHTML, like Gecko) Chrome/139.0.0.0 Safari/537.36" version="28.2.0">
  <diagram name="Page-1" id="aj6ILeAGqi16sulw5opv">
    <mxGraphModel grid="1" page="1" gridSize="10" guides="1" tooltips="1" connect="1" arrows="1" fold="1" pageScale="1" pageWidth="850" pageHeight="1100" math="0" shadow="0">
      <root>
        <mxCell id="0" />
        <mxCell id="1" parent="0" />
        <mxCell id="lmlzSXmy3zsbeizYmBdr-4" value="" style="verticalLabelPosition=bottom;verticalAlign=top;html=1;shape=mxgraph.basic.pie;fillColor=#fff2cc;strokeColor=#d6b656;startAngle=0.2;endAngle=0.7110104348113153;" vertex="1" parent="1">
          <mxGeometry x="525" y="310" width="100" height="100" as="geometry" />
        </mxCell>
        <mxCell id="lmlzSXmy3zsbeizYmBdr-5" value="" style="verticalLabelPosition=bottom;verticalAlign=top;html=1;shape=mxgraph.basic.pie;fillColor=#d5e8d4;strokeColor=#82b366;startAngle=0.16773663431570437;endAngle=0.5019408177305096;rotation=-105;" vertex="1" parent="1">
          <mxGeometry x="525" y="310" width="100" height="100" as="geometry" />
        </mxCell>
        <mxCell id="lmlzSXmy3zsbeizYmBdr-10" value="" style="verticalLabelPosition=bottom;verticalAlign=top;html=1;shape=mxgraph.basic.pie;fillColor=#f8cecc;strokeColor=#b85450;startAngle=0.32447487305652417;endAngle=0.5019408177305096;rotation=135;" vertex="1" parent="1">
          <mxGeometry x="524.9972435695795" y="309.99724356957944" width="100" height="100" as="geometry" />
        </mxCell>
        <mxCell id="lmlzSXmy3zsbeizYmBdr-14" value="ABC 50%" style="shape=rect;strokeWidth=0;fontStyle=1;html=1;whiteSpace=wrap;align=center;fillColor=#fff2cc;strokeColor=#d6b656;" vertex="1" parent="1">
          <mxGeometry x="550" y="370" width="50" height="30" as="geometry" />
        </mxCell>
        <mxCell id="lmlzSXmy3zsbeizYmBdr-15" value="" style="align=left;html=1;verticalAlign=middle;labelPosition=right;verticalLabelPosition=middle;labelBackgroundColor=none;fontSize=10" connectable="0" vertex="1" parent="lmlzSXmy3zsbeizYmBdr-14">
          <mxGeometry x="50" y="15" as="geometry" />
        </mxCell>
        <mxCell id="lmlzSXmy3zsbeizYmBdr-21" value="C&amp;nbsp;&lt;div&gt;&amp;nbsp;17%&lt;/div&gt;" style="shape=rect;strokeWidth=0;fontStyle=1;html=1;whiteSpace=wrap;align=center;fillColor=#f8cecc;strokeColor=#b85450;" vertex="1" parent="1">
          <mxGeometry x="530" y="340" width="20" height="20" as="geometry" />
        </mxCell>
        <mxCell id="lmlzSXmy3zsbeizYmBdr-22" value="" style="align=left;html=1;verticalAlign=middle;labelPosition=right;verticalLabelPosition=middle;labelBackgroundColor=none;fontSize=10" connectable="0" vertex="1" parent="lmlzSXmy3zsbeizYmBdr-21">
          <mxGeometry x="20" y="10" as="geometry" />
        </mxCell>
        <mxCell id="lmlzSXmy3zsbeizYmBdr-24" value="&lt;b&gt;&lt;font style=&quot;font-size: 13px;&quot;&gt;Population (replenish + expire)&lt;/font&gt;&lt;/b&gt;" style="text;html=1;align=center;verticalAlign=middle;resizable=0;points=[];autosize=1;strokeColor=none;fillColor=none;" vertex="1" parent="1">
          <mxGeometry x="310" y="195" width="210" height="30" as="geometry" />
        </mxCell>
        <mxCell id="lmlzSXmy3zsbeizYmBdr-26" value="&lt;b&gt;&lt;font style=&quot;font-size: 13px;&quot;&gt;Random selection (roulette wheel)&lt;/font&gt;&lt;/b&gt;" style="text;html=1;align=center;verticalAlign=middle;resizable=0;points=[];autosize=1;strokeColor=none;fillColor=none;" vertex="1" parent="1">
          <mxGeometry x="280" y="345" width="240" height="30" as="geometry" />
        </mxCell>
        <mxCell id="lmlzSXmy3zsbeizYmBdr-82" value="" style="edgeStyle=orthogonalEdgeStyle;rounded=0;orthogonalLoop=1;jettySize=auto;html=1;strokeWidth=2;entryX=0.504;entryY=-0.133;entryDx=0;entryDy=0;entryPerimeter=0;" edge="1" parent="1" source="lmlzSXmy3zsbeizYmBdr-46" target="lmlzSXmy3zsbeizYmBdr-68">
          <mxGeometry relative="1" as="geometry">
            <mxPoint x="390" y="520" as="targetPoint" />
          </mxGeometry>
        </mxCell>
        <mxCell id="lmlzSXmy3zsbeizYmBdr-46" value="&lt;b&gt;&lt;font style=&quot;font-size: 13px;&quot;&gt;Interaction (Concat/Recombine)&lt;/font&gt;&lt;/b&gt;" style="text;html=1;align=center;verticalAlign=middle;resizable=0;points=[];autosize=1;strokeColor=none;fillColor=none;" vertex="1" parent="1">
          <mxGeometry x="280" y="440" width="220" height="30" as="geometry" />
        </mxCell>
        <mxCell id="lmlzSXmy3zsbeizYmBdr-68" value="&lt;b&gt;&lt;font style=&quot;font-size: 13px;&quot;&gt;New Population&lt;/font&gt;&lt;/b&gt;" style="text;html=1;align=center;verticalAlign=middle;resizable=0;points=[];autosize=1;strokeColor=none;fillColor=none;" vertex="1" parent="1">
          <mxGeometry x="330" y="535" width="120" height="30" as="geometry" />
        </mxCell>
        <mxCell id="lmlzSXmy3zsbeizYmBdr-70" value="" style="endArrow=classic;html=1;rounded=1;strokeWidth=2;curved=0;" edge="1" parent="1">
          <mxGeometry width="50" height="50" relative="1" as="geometry">
            <mxPoint x="310" y="553" as="sourcePoint" />
            <mxPoint x="310" y="210" as="targetPoint" />
            <Array as="points">
              <mxPoint x="280" y="553" />
              <mxPoint x="280" y="490" />
              <mxPoint x="280" y="440" />
              <mxPoint x="280" y="210" />
            </Array>
          </mxGeometry>
        </mxCell>
        <mxCell id="lmlzSXmy3zsbeizYmBdr-76" value="" style="group" connectable="0" vertex="1" parent="1">
          <mxGeometry x="545" y="180" width="60" height="60" as="geometry" />
        </mxCell>
        <mxCell id="lvKgKvXLOtJM2dlG6-CL-1" value="A" style="rounded=0;whiteSpace=wrap;html=1;fillColor=#fff2cc;strokeColor=#d6b656;" vertex="1" parent="lmlzSXmy3zsbeizYmBdr-76">
          <mxGeometry x="10" width="10" height="20" as="geometry" />
        </mxCell>
        <mxCell id="lvKgKvXLOtJM2dlG6-CL-2" value="B" style="rounded=0;whiteSpace=wrap;html=1;fillColor=#fff2cc;strokeColor=#d6b656;" vertex="1" parent="lmlzSXmy3zsbeizYmBdr-76">
          <mxGeometry x="10" y="20" width="10" height="20" as="geometry" />
        </mxCell>
        <mxCell id="lvKgKvXLOtJM2dlG6-CL-3" value="C" style="rounded=0;whiteSpace=wrap;html=1;fillColor=#fff2cc;strokeColor=#d6b656;" vertex="1" parent="lmlzSXmy3zsbeizYmBdr-76">
          <mxGeometry x="10" y="40" width="10" height="20" as="geometry" />
        </mxCell>
        <mxCell id="lvKgKvXLOtJM2dlG6-CL-5" value="A" style="rounded=0;whiteSpace=wrap;html=1;fillColor=#fff2cc;strokeColor=#d6b656;" vertex="1" parent="lmlzSXmy3zsbeizYmBdr-76">
          <mxGeometry x="20" width="10" height="20" as="geometry" />
        </mxCell>
        <mxCell id="lvKgKvXLOtJM2dlG6-CL-6" value="B" style="rounded=0;whiteSpace=wrap;html=1;fillColor=#fff2cc;strokeColor=#d6b656;" vertex="1" parent="lmlzSXmy3zsbeizYmBdr-76">
          <mxGeometry x="20" y="20" width="10" height="20" as="geometry" />
        </mxCell>
        <mxCell id="lvKgKvXLOtJM2dlG6-CL-7" value="C" style="rounded=0;whiteSpace=wrap;html=1;fillColor=#fff2cc;strokeColor=#d6b656;" vertex="1" parent="lmlzSXmy3zsbeizYmBdr-76">
          <mxGeometry x="20" y="40" width="10" height="20" as="geometry" />
        </mxCell>
        <mxCell id="lvKgKvXLOtJM2dlG6-CL-10" value="A" style="rounded=0;whiteSpace=wrap;html=1;fillColor=#d5e8d4;strokeColor=#82b366;" vertex="1" parent="lmlzSXmy3zsbeizYmBdr-76">
          <mxGeometry x="40" width="10" height="20" as="geometry" />
        </mxCell>
        <mxCell id="lvKgKvXLOtJM2dlG6-CL-11" value="B" style="rounded=0;whiteSpace=wrap;html=1;fillColor=#d5e8d4;strokeColor=#82b366;" vertex="1" parent="lmlzSXmy3zsbeizYmBdr-76">
          <mxGeometry x="50" y="20" width="10" height="20" as="geometry" />
        </mxCell>
        <mxCell id="lvKgKvXLOtJM2dlG6-CL-14" value="A" style="rounded=0;whiteSpace=wrap;html=1;fillColor=#d5e8d4;strokeColor=#82b366;" vertex="1" parent="lmlzSXmy3zsbeizYmBdr-76">
          <mxGeometry x="50" width="10" height="20" as="geometry" />
        </mxCell>
        <mxCell id="lvKgKvXLOtJM2dlG6-CL-15" value="B" style="rounded=0;whiteSpace=wrap;html=1;fillColor=#d5e8d4;strokeColor=#82b366;" vertex="1" parent="lmlzSXmy3zsbeizYmBdr-76">
          <mxGeometry x="40" y="20" width="10" height="20" as="geometry" />
        </mxCell>
        <mxCell id="lvKgKvXLOtJM2dlG6-CL-16" value="A" style="rounded=0;whiteSpace=wrap;html=1;fillColor=#fff2cc;strokeColor=#d6b656;" vertex="1" parent="lmlzSXmy3zsbeizYmBdr-76">
          <mxGeometry width="10" height="20" as="geometry" />
        </mxCell>
        <mxCell id="lvKgKvXLOtJM2dlG6-CL-17" value="B" style="rounded=0;whiteSpace=wrap;html=1;fillColor=#fff2cc;strokeColor=#d6b656;" vertex="1" parent="lmlzSXmy3zsbeizYmBdr-76">
          <mxGeometry y="20" width="10" height="20" as="geometry" />
        </mxCell>
        <mxCell id="lvKgKvXLOtJM2dlG6-CL-18" value="C" style="rounded=0;whiteSpace=wrap;html=1;fillColor=#fff2cc;strokeColor=#d6b656;" vertex="1" parent="lmlzSXmy3zsbeizYmBdr-76">
          <mxGeometry y="40" width="10" height="20" as="geometry" />
        </mxCell>
        <mxCell id="lmlzSXmy3zsbeizYmBdr-78" value="" style="group" connectable="0" vertex="1" parent="1">
          <mxGeometry x="520" y="430" width="115" height="60" as="geometry" />
        </mxCell>
        <mxCell id="lmlzSXmy3zsbeizYmBdr-27" value="C" style="rounded=0;whiteSpace=wrap;html=1;fillColor=#f8cecc;strokeColor=#b85450;" vertex="1" parent="lmlzSXmy3zsbeizYmBdr-78">
          <mxGeometry x="45" y="20" width="10" height="20" as="geometry" />
        </mxCell>
        <mxCell id="lmlzSXmy3zsbeizYmBdr-28" value="A" style="rounded=0;whiteSpace=wrap;html=1;fillColor=#d5e8d4;strokeColor=#82b366;" vertex="1" parent="lmlzSXmy3zsbeizYmBdr-78">
          <mxGeometry y="10" width="10" height="20" as="geometry" />
        </mxCell>
        <mxCell id="lmlzSXmy3zsbeizYmBdr-29" value="B" style="rounded=0;whiteSpace=wrap;html=1;fillColor=#d5e8d4;strokeColor=#82b366;" vertex="1" parent="lmlzSXmy3zsbeizYmBdr-78">
          <mxGeometry y="30" width="10" height="20" as="geometry" />
        </mxCell>
        <mxCell id="lmlzSXmy3zsbeizYmBdr-34" value="&lt;b&gt;+&lt;/b&gt;" style="text;html=1;align=center;verticalAlign=middle;resizable=0;points=[];autosize=1;strokeColor=none;fillColor=none;" vertex="1" parent="lmlzSXmy3zsbeizYmBdr-78">
          <mxGeometry x="15" y="15" width="30" height="30" as="geometry" />
        </mxCell>
        <mxCell id="lmlzSXmy3zsbeizYmBdr-38" value="&lt;b&gt;=&lt;/b&gt;" style="text;html=1;align=center;verticalAlign=middle;resizable=0;points=[];autosize=1;strokeColor=none;fillColor=none;" vertex="1" parent="lmlzSXmy3zsbeizYmBdr-78">
          <mxGeometry x="65" y="15" width="30" height="30" as="geometry" />
        </mxCell>
        <mxCell id="lmlzSXmy3zsbeizYmBdr-39" value="A" style="rounded=0;whiteSpace=wrap;html=1;fillColor=#fff2cc;strokeColor=#d6b656;" vertex="1" parent="lmlzSXmy3zsbeizYmBdr-78">
          <mxGeometry x="105" width="10" height="20" as="geometry" />
        </mxCell>
        <mxCell id="lmlzSXmy3zsbeizYmBdr-40" value="B" style="rounded=0;whiteSpace=wrap;html=1;fillColor=#fff2cc;strokeColor=#d6b656;" vertex="1" parent="lmlzSXmy3zsbeizYmBdr-78">
          <mxGeometry x="105" y="20" width="10" height="20" as="geometry" />
        </mxCell>
        <mxCell id="lmlzSXmy3zsbeizYmBdr-41" value="C" style="rounded=0;whiteSpace=wrap;html=1;fillColor=#fff2cc;strokeColor=#d6b656;" vertex="1" parent="lmlzSXmy3zsbeizYmBdr-78">
          <mxGeometry x="105" y="40" width="10" height="20" as="geometry" />
        </mxCell>
        <mxCell id="lmlzSXmy3zsbeizYmBdr-83" value="" style="edgeStyle=orthogonalEdgeStyle;rounded=0;orthogonalLoop=1;jettySize=auto;html=1;strokeWidth=2;" edge="1" parent="1">
          <mxGeometry relative="1" as="geometry">
            <mxPoint x="389.5" y="380" as="sourcePoint" />
            <mxPoint x="390" y="430" as="targetPoint" />
          </mxGeometry>
        </mxCell>
        <mxCell id="lmlzSXmy3zsbeizYmBdr-86" value="AB&amp;nbsp; &amp;nbsp;33%" style="shape=rect;strokeWidth=0;fontStyle=1;html=1;whiteSpace=wrap;align=center;fillColor=#d5e8d4;strokeColor=#82b366;" vertex="1" parent="1">
          <mxGeometry x="560" y="320" width="45" height="20" as="geometry" />
        </mxCell>
        <mxCell id="lmlzSXmy3zsbeizYmBdr-87" value="" style="align=left;html=1;verticalAlign=middle;labelPosition=right;verticalLabelPosition=middle;labelBackgroundColor=none;fontSize=10" connectable="0" vertex="1" parent="lmlzSXmy3zsbeizYmBdr-86">
          <mxGeometry x="45" y="10" as="geometry" />
        </mxCell>
        <mxCell id="lmlzSXmy3zsbeizYmBdr-95" value="&lt;b&gt;&lt;font style=&quot;font-size: 10px;&quot;&gt;S=50&lt;/font&gt;&lt;/b&gt;" style="text;html=1;align=center;verticalAlign=middle;resizable=0;points=[];autosize=1;strokeColor=none;fillColor=none;" vertex="1" parent="1">
          <mxGeometry x="530" y="260" width="50" height="30" as="geometry" />
        </mxCell>
        <mxCell id="lmlzSXmy3zsbeizYmBdr-96" value="&lt;b&gt;&lt;font style=&quot;font-size: 10px;&quot;&gt;S=30&lt;/font&gt;&lt;/b&gt;" style="text;html=1;align=center;verticalAlign=middle;resizable=0;points=[];autosize=1;strokeColor=none;fillColor=none;" vertex="1" parent="1">
          <mxGeometry x="570" y="260" width="50" height="30" as="geometry" />
        </mxCell>
        <mxCell id="lmlzSXmy3zsbeizYmBdr-97" value="&lt;b&gt;&lt;font style=&quot;font-size: 10px;&quot;&gt;S=1&lt;/font&gt;&lt;/b&gt;" style="text;html=1;align=center;verticalAlign=middle;resizable=0;points=[];autosize=1;strokeColor=none;fillColor=none;" vertex="1" parent="1">
          <mxGeometry x="610" y="260" width="40" height="30" as="geometry" />
        </mxCell>
        <mxCell id="lvKgKvXLOtJM2dlG6-CL-12" value="C" style="rounded=0;whiteSpace=wrap;html=1;fillColor=#f8cecc;strokeColor=#b85450;" vertex="1" parent="1">
          <mxGeometry x="620" y="180" width="10" height="20" as="geometry" />
        </mxCell>
        <mxCell id="lmlzSXmy3zsbeizYmBdr-105" value="&lt;span style=&quot;font-size: 13px;&quot;&gt;&lt;b&gt;Stability drives abundance&lt;/b&gt;&lt;/span&gt;" style="text;html=1;align=center;verticalAlign=middle;resizable=0;points=[];autosize=1;strokeColor=none;fillColor=none;" vertex="1" parent="1">
          <mxGeometry x="295" y="260" width="190" height="30" as="geometry" />
        </mxCell>
        <mxCell id="lmlzSXmy3zsbeizYmBdr-107" value="" style="edgeStyle=orthogonalEdgeStyle;rounded=0;orthogonalLoop=1;jettySize=auto;html=1;strokeWidth=2;" edge="1" parent="1">
          <mxGeometry relative="1" as="geometry">
            <mxPoint x="389.5" y="290" as="sourcePoint" />
            <mxPoint x="390" y="340" as="targetPoint" />
          </mxGeometry>
        </mxCell>
        <mxCell id="lmlzSXmy3zsbeizYmBdr-108" value="" style="edgeStyle=orthogonalEdgeStyle;rounded=0;orthogonalLoop=1;jettySize=auto;html=1;strokeWidth=2;" edge="1" parent="1">
          <mxGeometry relative="1" as="geometry">
            <mxPoint x="389.5" y="225" as="sourcePoint" />
            <mxPoint x="390" y="265" as="targetPoint" />
          </mxGeometry>
        </mxCell>
        <mxCell id="lmlzSXmy3zsbeizYmBdr-110" value="" style="group" connectable="0" vertex="1" parent="1">
          <mxGeometry x="530" y="520" width="90" height="60" as="geometry" />
        </mxCell>
        <mxCell id="lmlzSXmy3zsbeizYmBdr-79" value="" style="group" connectable="0" vertex="1" parent="lmlzSXmy3zsbeizYmBdr-110">
          <mxGeometry width="70" height="60" as="geometry" />
        </mxCell>
        <mxCell id="lmlzSXmy3zsbeizYmBdr-48" value="A" style="rounded=0;whiteSpace=wrap;html=1;fillColor=#fff2cc;strokeColor=#d6b656;" vertex="1" parent="lmlzSXmy3zsbeizYmBdr-79">
          <mxGeometry x="20" width="10" height="20" as="geometry" />
        </mxCell>
        <mxCell id="lmlzSXmy3zsbeizYmBdr-49" value="B" style="rounded=0;whiteSpace=wrap;html=1;fillColor=#fff2cc;strokeColor=#d6b656;" vertex="1" parent="lmlzSXmy3zsbeizYmBdr-79">
          <mxGeometry x="20" y="20" width="10" height="20" as="geometry" />
        </mxCell>
        <mxCell id="lmlzSXmy3zsbeizYmBdr-50" value="C" style="rounded=0;whiteSpace=wrap;html=1;fillColor=#fff2cc;strokeColor=#d6b656;" vertex="1" parent="lmlzSXmy3zsbeizYmBdr-79">
          <mxGeometry x="20" y="40" width="10" height="20" as="geometry" />
        </mxCell>
        <mxCell id="lmlzSXmy3zsbeizYmBdr-51" value="A" style="rounded=0;whiteSpace=wrap;html=1;fillColor=#fff2cc;strokeColor=#d6b656;" vertex="1" parent="lmlzSXmy3zsbeizYmBdr-79">
          <mxGeometry x="30" width="10" height="20" as="geometry" />
        </mxCell>
        <mxCell id="lmlzSXmy3zsbeizYmBdr-52" value="B" style="rounded=0;whiteSpace=wrap;html=1;fillColor=#fff2cc;strokeColor=#d6b656;" vertex="1" parent="lmlzSXmy3zsbeizYmBdr-79">
          <mxGeometry x="30" y="20" width="10" height="20" as="geometry" />
        </mxCell>
        <mxCell id="lmlzSXmy3zsbeizYmBdr-53" value="C" style="rounded=0;whiteSpace=wrap;html=1;fillColor=#fff2cc;strokeColor=#d6b656;" vertex="1" parent="lmlzSXmy3zsbeizYmBdr-79">
          <mxGeometry x="30" y="40" width="10" height="20" as="geometry" />
        </mxCell>
        <mxCell id="lmlzSXmy3zsbeizYmBdr-54" value="A" style="rounded=0;whiteSpace=wrap;html=1;fillColor=#d5e8d4;strokeColor=#82b366;" vertex="1" parent="lmlzSXmy3zsbeizYmBdr-79">
          <mxGeometry x="50" width="10" height="20" as="geometry" />
        </mxCell>
        <mxCell id="lmlzSXmy3zsbeizYmBdr-55" value="B" style="rounded=0;whiteSpace=wrap;html=1;fillColor=#d5e8d4;strokeColor=#82b366;" vertex="1" parent="lmlzSXmy3zsbeizYmBdr-79">
          <mxGeometry x="50" y="20" width="10" height="20" as="geometry" />
        </mxCell>
        <mxCell id="lmlzSXmy3zsbeizYmBdr-57" value="A" style="rounded=0;whiteSpace=wrap;html=1;fillColor=#d5e8d4;strokeColor=#82b366;" vertex="1" parent="lmlzSXmy3zsbeizYmBdr-79">
          <mxGeometry x="60" width="10" height="20" as="geometry" />
        </mxCell>
        <mxCell id="lmlzSXmy3zsbeizYmBdr-58" value="B" style="rounded=0;whiteSpace=wrap;html=1;fillColor=#d5e8d4;strokeColor=#82b366;" vertex="1" parent="lmlzSXmy3zsbeizYmBdr-79">
          <mxGeometry x="60" y="20" width="10" height="20" as="geometry" />
        </mxCell>
        <mxCell id="lmlzSXmy3zsbeizYmBdr-59" value="A" style="rounded=0;whiteSpace=wrap;html=1;fillColor=#fff2cc;strokeColor=#d6b656;" vertex="1" parent="lmlzSXmy3zsbeizYmBdr-79">
          <mxGeometry x="10" width="10" height="20" as="geometry" />
        </mxCell>
        <mxCell id="lmlzSXmy3zsbeizYmBdr-60" value="B" style="rounded=0;whiteSpace=wrap;html=1;fillColor=#fff2cc;strokeColor=#d6b656;" vertex="1" parent="lmlzSXmy3zsbeizYmBdr-79">
          <mxGeometry x="10" y="20" width="10" height="20" as="geometry" />
        </mxCell>
        <mxCell id="lmlzSXmy3zsbeizYmBdr-61" value="C" style="rounded=0;whiteSpace=wrap;html=1;fillColor=#fff2cc;strokeColor=#d6b656;" vertex="1" parent="lmlzSXmy3zsbeizYmBdr-79">
          <mxGeometry x="10" y="40" width="10" height="20" as="geometry" />
        </mxCell>
        <mxCell id="lmlzSXmy3zsbeizYmBdr-62" value="A" style="rounded=0;whiteSpace=wrap;html=1;fillColor=#fff2cc;strokeColor=#d6b656;" vertex="1" parent="lmlzSXmy3zsbeizYmBdr-79">
          <mxGeometry width="10" height="20" as="geometry" />
        </mxCell>
        <mxCell id="lmlzSXmy3zsbeizYmBdr-63" value="B" style="rounded=0;whiteSpace=wrap;html=1;fillColor=#fff2cc;strokeColor=#d6b656;" vertex="1" parent="lmlzSXmy3zsbeizYmBdr-79">
          <mxGeometry y="20" width="10" height="20" as="geometry" />
        </mxCell>
        <mxCell id="lmlzSXmy3zsbeizYmBdr-64" value="C" style="rounded=0;whiteSpace=wrap;html=1;fillColor=#fff2cc;strokeColor=#d6b656;" vertex="1" parent="lmlzSXmy3zsbeizYmBdr-79">
          <mxGeometry y="40" width="10" height="20" as="geometry" />
        </mxCell>
        <mxCell id="lmlzSXmy3zsbeizYmBdr-56" value="C" style="rounded=0;whiteSpace=wrap;html=1;fillColor=#f8cecc;strokeColor=#b85450;" vertex="1" parent="lmlzSXmy3zsbeizYmBdr-110">
          <mxGeometry x="80" width="10" height="20" as="geometry" />
        </mxCell>
      </root>
    </mxGraphModel>
  </diagram>
</mxfile>
